<?xml version="1.0" standalone="no"?>
<!DOCTYPE svg PUBLIC "-//W3C//DTD SVG 20010904//EN"
 "http://www.w3.org/TR/2001/REC-SVG-20010904/DTD/svg10.dtd">
<svg version="1.0" xmlns="http://www.w3.org/2000/svg"
 width="244.000000pt" height="193.000000pt" viewBox="0 0 244.000000 193.000000"
 preserveAspectRatio="xMidYMid meet">

<g transform="translate(0.000000,193.000000) scale(0.100000,-0.100000)"
fill="#000000" stroke="none">
<path d="M1199 1535 c-83 -124 -156 -228 -160 -231 -5 -3 -35 0 -66 7 -32 6
-76 15 -98 19 -22 4 -87 18 -145 30 -180 39 -158 44 -220 -51 -30 -45 -60 -87
-65 -93 -20 -20 -198 -289 -202 -307 -5 -17 5 -40 83 -206 24 -51 58 -123 75
-160 17 -37 42 -91 55 -119 34 -75 16 -67 254 -109 119 -21 235 -42 418 -75
142 -27 171 -32 222 -41 30 -5 78 -12 106 -15 l52 -6 106 163 c58 90 167 259
241 374 74 116 139 215 145 222 5 7 10 15 10 18 0 3 21 36 46 75 36 53 45 75
40 94 -6 24 -26 69 -141 311 -108 229 -105 223 -133 228 -74 16 -131 28 -172
37 -25 6 -67 14 -95 20 -27 5 -81 16 -120 25 -38 8 -73 15 -77 15 -4 0 -75
-101 -159 -225z m306 145 c28 -6 70 -14 95 -20 25 -6 68 -14 95 -20 125 -25
118 -20 150 -86 17 -33 47 -96 67 -140 20 -43 55 -119 78 -168 23 -48 39 -91
36 -94 -6 -5 -96 11 -152 29 -17 5 -41 9 -54 9 -13 0 -37 4 -54 9 -17 6 -56
15 -86 21 -62 13 -45 -10 -148 210 -27 58 -66 140 -86 182 -20 43 -36 80 -36
84 0 3 10 3 23 0 12 -4 45 -11 72 -16z m-816 -359 c20 -5 63 -15 96 -21 33 -7
74 -16 90 -20 17 -4 59 -14 93 -21 l64 -12 25 -56 c45 -97 132 -284 162 -344
16 -32 24 -60 19 -63 -5 -4 -29 -1 -54 5 -89 22 -246 56 -317 69 -29 5 -36 16
-137 236 -15 33 -44 96 -64 138 -49 105 -49 107 23 89z m987 -151 c207 -40
338 -70 347 -79 6 -6 2 -19 -11 -38 -11 -15 -30 -46 -43 -69 -13 -23 -71 -114
-129 -203 -299 -461 -340 -525 -340 -532 0 -15 -36 -19 -90 -9 -507 87 -837
147 -852 156 -5 3 216 344 268 412 3 5 111 -13 224 -38 52 -11 130 -28 173
-37 l77 -15 19 23 c10 13 74 107 141 209 103 156 156 230 165 230 1 0 24 -4
51 -10z"/>
</g>
</svg>
